<svg version="1.1" id="Layer_1" xmlns="http://www.w3.org/2000/svg" xmlns:xlink="http://www.w3.org/1999/xlink" x="0px" y="0px"
	 width="293.578px" height="34.107px" viewBox="0 0 293.578 34.107" enable-background="new 0 0 293.578 34.107"
	 xml:space="preserve">
<g>
	<g>
		<g>
			
				<linearGradient id="SVGID_1_" gradientUnits="userSpaceOnUse" x1="816.2539" y1="-807.9417" x2="816.2539" y2="-863.1061" gradientTransform="matrix(1 0 0 -1 -745.7988 -825.7378)">
				<stop  offset="0" style="stop-color:#FFF57C"/>
				<stop  offset="0.2403" style="stop-color:#F37321"/>
				<stop  offset="1" style="stop-color:#EE3524"/>
			</linearGradient>
			<path fill="url(#SVGID_1_)" d="M134.177,0.001H6.735c-3.721,0-6.734,3.017-6.734,6.731v20.641c0,3.721,3.014,6.733,6.734,6.733
				h127.441c3.718,0,6.732-3.016,6.732-6.733V6.733C140.91,3.016,137.894,0.001,134.177,0.001L134.177,0.001z"/>
		</g>
		<g>
			<g>
				<g>
					<path fill="#FFFFFF" d="M37.133,12.338c-0.926-0.8-2.361-1.203-4.307-1.208c-0.971-0.005-1.876,0.055-2.711,0.183
						c-0.837,0.123-1.666,0.317-2.483,0.59c-0.138,0.049-0.232,0.113-0.283,0.188c-0.055,0.075-0.055,0.235-0.002,0.478l0.476,2.199
						c0.034,0.188,0.093,0.316,0.178,0.385c0.085,0.067,0.247,0.069,0.487,0.001c0.273-0.065,0.574-0.124,0.907-0.174
						c0.336-0.052,0.67-0.09,1.013-0.125c0.34-0.033,0.667-0.062,0.971-0.086c0.311-0.022,0.581-0.036,0.821-0.036
						c0.375,0.002,0.677,0.048,0.905,0.133c0.23,0.088,0.411,0.2,0.538,0.339c0.127,0.133,0.205,0.275,0.24,0.431
						c0.034,0.154,0.052,0.292,0.052,0.412l-0.004,0.358l-2.787-0.012c-1.57-0.01-2.827,0.376-3.767,1.146
						c-0.942,0.771-1.42,1.906-1.423,3.405c-0.004,0.618,0.101,1.188,0.301,1.718c0.204,0.527,0.544,0.988,1.033,1.374
						c0.483,0.387,1.127,0.688,1.926,0.901c0.801,0.222,1.79,0.328,2.965,0.334c0.445,0.002,0.918-0.018,1.423-0.045
						c0.5-0.033,1-0.092,1.497-0.176c0.493-0.082,0.979-0.189,1.447-0.324c0.469-0.137,0.899-0.293,1.293-0.481
						c0.323-0.168,0.511-0.343,0.564-0.519c0.053-0.186,0.077-0.391,0.077-0.629l0.029-7.114
						C38.515,14.351,38.057,13.131,37.133,12.338z M33.883,21.393c-0.205,0.103-0.469,0.169-0.797,0.197
						c-0.333,0.035-0.559,0.052-0.677,0.052c-0.49-0.005-0.883-0.099-1.175-0.289c-0.297-0.187-0.446-0.485-0.442-0.896
						c0-0.29,0.054-0.521,0.156-0.704c0.102-0.181,0.228-0.312,0.384-0.404c0.15-0.098,0.318-0.157,0.506-0.188
						c0.188-0.035,0.372-0.054,0.56-0.052l1.496,0.009L33.883,21.393z"/>
					<path fill="#FFFFFF" d="M51.193,18.125c-0.407-0.354-0.896-0.669-1.468-0.938c-0.568-0.279-1.196-0.543-1.879-0.804
						c-0.593-0.22-1.005-0.414-1.223-0.566c-0.224-0.152-0.333-0.343-0.332-0.562c0-0.087,0.049-0.205,0.145-0.357
						c0.094-0.152,0.287-0.229,0.575-0.229c0.544,0.001,1.095,0.064,1.65,0.188c0.553,0.12,1.128,0.26,1.726,0.416
						c0.235,0.067,0.406,0.082,0.498,0.04c0.093-0.044,0.186-0.186,0.272-0.421l0.695-1.838c0.104-0.274,0.15-0.453,0.144-0.541
						c-0.006-0.083-0.133-0.187-0.37-0.308c-0.596-0.292-1.341-0.529-2.237-0.71c-0.894-0.186-1.758-0.278-2.594-0.282
						c-0.92-0.004-1.717,0.108-2.379,0.337c-0.666,0.229-1.211,0.528-1.631,0.913c-0.421,0.38-0.734,0.832-0.94,1.354
						c-0.209,0.521-0.311,1.062-0.313,1.625c0,0.526,0.1,0.999,0.299,1.409c0.205,0.406,0.491,0.776,0.855,1.115
						c0.364,0.334,0.814,0.638,1.352,0.913c0.537,0.273,1.137,0.546,1.802,0.828c0.73,0.294,1.214,0.525,1.439,0.695
						c0.231,0.17,0.346,0.343,0.346,0.513c0,0.172-0.062,0.328-0.178,0.478c-0.125,0.143-0.421,0.214-0.9,0.213
						c-0.257-0.003-0.557-0.037-0.907-0.107c-0.348-0.064-0.707-0.15-1.076-0.248c-0.365-0.097-0.715-0.191-1.049-0.302
						c-0.328-0.098-0.606-0.196-0.827-0.278c-0.205-0.088-0.359-0.112-0.459-0.081c-0.105,0.033-0.198,0.162-0.288,0.386
						l-0.926,2.172c-0.087,0.187-0.116,0.332-0.09,0.443c0.021,0.111,0.104,0.207,0.239,0.295c0.764,0.5,1.662,0.859,2.683,1.087
						c1.024,0.228,2.002,0.341,2.939,0.345c1.809,0.013,3.207-0.34,4.188-1.045c0.985-0.703,1.478-1.755,1.483-3.151
						c0.003-0.683-0.104-1.263-0.327-1.739C51.915,18.891,51.6,18.477,51.193,18.125z"/>
					<path fill="#FFFFFF" d="M65.682,12.454c-0.926-0.796-2.36-1.202-4.303-1.211c-0.973-0.006-1.878,0.056-2.713,0.188
						c-0.84,0.118-1.669,0.317-2.484,0.586c-0.137,0.054-0.23,0.111-0.285,0.193c-0.052,0.072-0.052,0.231-0.001,0.473l0.479,2.199
						c0.037,0.188,0.091,0.321,0.18,0.389c0.08,0.064,0.245,0.064,0.481,0c0.275-0.065,0.578-0.127,0.912-0.177
						c0.333-0.05,0.67-0.089,1.009-0.12c0.343-0.033,0.668-0.062,0.976-0.09c0.309-0.021,0.579-0.034,0.818-0.031
						c0.378,0,0.679,0.044,0.908,0.133c0.229,0.085,0.406,0.195,0.534,0.334c0.126,0.137,0.209,0.279,0.239,0.437
						c0.035,0.147,0.054,0.288,0.053,0.411l-0.003,0.357l-2.789-0.016c-1.566-0.006-2.826,0.378-3.765,1.15
						c-0.941,0.771-1.417,1.909-1.422,3.407c-0.001,0.61,0.095,1.187,0.296,1.716c0.205,0.526,0.551,0.987,1.034,1.375
						c0.486,0.385,1.128,0.686,1.928,0.901c0.799,0.217,1.788,0.324,2.966,0.33c0.444,0.002,0.917-0.012,1.419-0.045
						c0.507-0.029,1.005-0.09,1.502-0.172c0.49-0.086,0.976-0.195,1.441-0.324c0.471-0.139,0.9-0.299,1.298-0.484
						c0.322-0.163,0.511-0.342,0.565-0.521c0.05-0.18,0.076-0.391,0.077-0.627l0.026-7.11C67.071,14.464,66.61,13.25,65.682,12.454z
						 M62.435,21.508c-0.203,0.104-0.47,0.167-0.797,0.203c-0.333,0.033-0.556,0.049-0.675,0.047c-0.491,0-0.882-0.098-1.179-0.289
						c-0.297-0.186-0.444-0.483-0.44-0.895c0-0.289,0.053-0.523,0.157-0.702c0.1-0.18,0.228-0.313,0.381-0.409
						c0.151-0.093,0.32-0.154,0.509-0.188c0.187-0.032,0.37-0.054,0.558-0.05l1.496,0.006L62.435,21.508z"/>
					<path fill="#FFFFFF" d="M72.661,21.552c-0.533-0.001-0.986,0.183-1.352,0.546c-0.366,0.361-0.549,0.807-0.552,1.344
						c-0.002,0.549,0.178,1.009,0.542,1.359c0.361,0.354,0.812,0.535,1.344,0.541c0.552,0.002,1.004-0.178,1.363-0.545
						c0.355-0.357,0.535-0.81,0.535-1.344c0.003-0.554-0.173-1.003-0.525-1.359C73.662,21.736,73.209,21.557,72.661,21.552z"/>
					<path fill="#FFFFFF" d="M79.631,5.742c-0.428-0.006-0.796,0.147-1.109,0.45c-0.314,0.298-0.47,0.673-0.47,1.117
						c-0.004,0.427,0.15,0.791,0.459,1.092c0.312,0.307,0.683,0.459,1.107,0.46c0.427,0,0.79-0.148,1.092-0.45
						c0.305-0.304,0.459-0.664,0.46-1.092c0.003-0.445-0.146-0.82-0.448-1.12C80.419,5.897,80.056,5.742,79.631,5.742z"/>
					<path fill="#FFFFFF" d="M80.302,11.051l-1.439-0.01c-0.141,0.003-0.253,0.027-0.334,0.07c-0.08,0.041-0.121,0.152-0.121,0.33
						l-0.055,13.201c-0.001,0.178,0.038,0.291,0.118,0.332c0.078,0.049,0.192,0.068,0.334,0.068l1.439,0.006
						c0.16,0.002,0.269-0.021,0.335-0.066c0.061-0.043,0.094-0.151,0.094-0.33l0.052-13.201c0-0.179-0.028-0.29-0.088-0.333
						C80.575,11.076,80.462,11.051,80.302,11.051z"/>
					<path fill="#FFFFFF" d="M94.765,12.375c-0.523-0.544-1.192-0.939-2.011-1.191c-0.813-0.255-1.793-0.384-2.93-0.386
						c-0.214-0.004-0.473,0-0.776,0.01c-0.301,0.008-0.61,0.023-0.933,0.048c-0.319,0.027-0.626,0.051-0.923,0.076
						c-0.291,0.024-0.534,0.055-0.73,0.094c-0.644,0.084-1.082,0.292-1.322,0.622c-0.238,0.323-0.367,0.791-0.367,1.396
						L84.725,24.67c-0.002,0.18,0.034,0.285,0.109,0.326c0.07,0.053,0.172,0.071,0.316,0.071l1.466,0.009
						c0.141,0,0.249-0.021,0.317-0.066c0.074-0.043,0.106-0.148,0.108-0.328l0.051-11.655c0.568-0.087,1.084-0.146,1.545-0.17
						c0.463-0.022,0.793-0.035,0.987-0.032c0.852,0.003,1.562,0.104,2.12,0.299c0.562,0.203,1,0.502,1.331,0.902
						c0.325,0.403,0.557,0.901,0.688,1.5c0.129,0.6,0.192,1.298,0.188,2.1l-0.028,7.084c0,0.176,0.034,0.289,0.106,0.332
						c0.067,0.047,0.177,0.065,0.316,0.065l1.47,0.008c0.157,0.002,0.271-0.019,0.334-0.063c0.062-0.045,0.094-0.154,0.096-0.329
						l0.028-7.149c0.005-1.207-0.116-2.237-0.363-3.094C95.665,13.621,95.286,12.922,94.765,12.375z"/>
					<path fill="#FFFFFF" d="M101.429,21.67c-0.528,0-0.98,0.182-1.345,0.543c-0.366,0.361-0.55,0.809-0.553,1.344
						c-0.002,0.553,0.179,1.008,0.54,1.363c0.363,0.354,0.811,0.535,1.344,0.539c0.555,0.002,1.005-0.181,1.366-0.543
						c0.354-0.359,0.529-0.812,0.533-1.347c0.004-0.551-0.172-1.004-0.521-1.36C102.434,21.854,101.986,21.674,101.429,21.67z"/>
					<path fill="#FFFFFF" d="M117.847,11.247c-0.068-0.045-0.177-0.068-0.318-0.072l-1.461-0.004c-0.162,0-0.276,0.021-0.341,0.063
						c-0.062,0.044-0.092,0.156-0.093,0.334l-0.048,11.65c-0.586,0.089-1.104,0.146-1.56,0.165
						c-0.455,0.024-0.779,0.039-0.975,0.039c-0.872-0.004-1.58-0.104-2.119-0.289c-0.546-0.188-0.962-0.481-1.249-0.869
						c-0.295-0.396-0.49-0.895-0.594-1.488c-0.104-0.6-0.153-1.297-0.152-2.1l0.027-7.138c0.004-0.176-0.032-0.289-0.104-0.333
						c-0.07-0.048-0.178-0.067-0.32-0.067l-1.466-0.009c-0.142,0-0.25,0.021-0.322,0.066c-0.07,0.044-0.105,0.155-0.105,0.334
						l-0.027,7.254c-0.007,1.209,0.099,2.235,0.317,3.08c0.223,0.844,0.574,1.524,1.073,2.057c0.495,0.527,1.137,0.91,1.93,1.152
						c0.784,0.245,1.761,0.368,2.92,0.377c0.211,0,0.459-0.007,0.744-0.013c0.283-0.012,0.577-0.021,0.883-0.039
						c0.297-0.016,0.601-0.039,0.903-0.061c0.302-0.023,0.579-0.059,0.828-0.096c1.119-0.207,1.683-0.881,1.688-2.021l0.047-11.65
						C117.954,11.398,117.918,11.287,117.847,11.247z"/>
					<path fill="#FFFFFF" d="M127.183,10.949c-0.728-0.005-1.531,0.049-2.401,0.162c-0.874,0.113-1.645,0.312-2.324,0.591
						c-0.142,0.051-0.226,0.118-0.249,0.2c-0.03,0.082-0.023,0.166,0.015,0.253l0.312,1.149c0.035,0.14,0.097,0.221,0.186,0.24
						c0.091,0.017,0.204,0,0.349-0.054c0.442-0.141,1.021-0.262,1.721-0.368c0.703-0.104,1.365-0.151,1.989-0.146
						c0.653,0,1.19,0.067,1.612,0.203c0.418,0.133,0.738,0.32,0.969,0.57s0.386,0.541,0.462,0.876
						c0.082,0.337,0.115,0.713,0.115,1.141l-0.003,0.576l-3.251-0.009c-1.067-0.007-1.973,0.125-2.707,0.383
						c-0.737,0.272-1.341,0.618-1.806,1.055c-0.466,0.438-0.803,0.941-1.009,1.521c-0.205,0.577-0.308,1.168-0.312,1.776
						c-0.002,0.587,0.079,1.148,0.246,1.685c0.167,0.539,0.462,1.01,0.887,1.422c0.425,0.41,1.008,0.742,1.743,0.982
						c0.737,0.243,1.685,0.37,2.839,0.373c0.854,0.004,1.748-0.056,2.683-0.175c0.935-0.118,1.802-0.358,2.604-0.711
						c0.264-0.104,0.398-0.336,0.401-0.69l0.036-8.347c0.002-1.509-0.398-2.664-1.214-3.458
						C130.256,11.356,128.961,10.956,127.183,10.949z M129.879,23.119c-0.284,0.106-0.587,0.188-0.906,0.249
						c-0.324,0.061-0.641,0.115-0.946,0.158c-0.314,0.043-0.6,0.066-0.856,0.078c-0.256,0.006-0.466,0.008-0.625,0.008
						c-0.479-0.002-0.925-0.043-1.333-0.127c-0.409-0.08-0.765-0.213-1.066-0.401c-0.301-0.188-0.541-0.445-0.717-0.773
						c-0.175-0.33-0.263-0.738-0.26-1.218c0.002-0.639,0.129-1.145,0.391-1.505c0.261-0.359,0.577-0.639,0.952-0.824
						c0.372-0.183,0.771-0.297,1.188-0.34c0.415-0.042,0.786-0.062,1.107-0.062l3.091,0.013L129.879,23.119z"/>
				</g>
			</g>
			<g>
				<g>
					<path fill="#FFFFFF" d="M15.042,11.885c0.001-0.203-0.019-0.343-0.062-0.409c-0.043-0.067-0.212-0.104-0.508-0.104
						l-3.507-0.015c-0.399-0.003-0.599,0.166-0.599,0.509l-0.054,12.504c-0.001,0.36,0.196,0.541,0.596,0.545l3.457,0.012
						c0.295,0.003,0.473-0.037,0.529-0.111c0.066-0.076,0.096-0.217,0.097-0.424C14.993,24.09,15.042,11.885,15.042,11.885z"/>
				</g>
				<path fill="#FFFFFF" d="M20.329,18.334c-0.062-0.109-0.065-0.288-0.004-0.396l3.443-6.034c0.101-0.188,0.101-0.325-0.002-0.411
					c-0.104-0.084-0.273-0.129-0.513-0.127l-3.458,0.014c-0.238,0-0.425,0.032-0.559,0.1c-0.052,0.024-0.101,0.062-0.146,0.104
					l-3.629,6.354c-0.061,0.106-0.059,0.285,0.004,0.396l3.625,6.379c0.046,0.045,0.095,0.08,0.146,0.106
					c0.134,0.064,0.32,0.099,0.559,0.099l3.458,0.018c0.239,0,0.409-0.045,0.513-0.129c0.103-0.088,0.103-0.227,0.002-0.414
					L20.329,18.334z"/>
			</g>
		</g>
	</g>
	<g>
		<g>
			<path fill="#5F6062" d="M153.835,20.993c-0.386,0-0.74-0.042-1.069-0.126c-0.33-0.084-0.615-0.21-0.855-0.379
				c-0.24-0.168-0.43-0.384-0.565-0.647c-0.14-0.264-0.206-0.573-0.206-0.937c0-0.455,0.072-0.854,0.227-1.196
				c0.148-0.342,0.359-0.64,0.63-0.892s0.603-0.473,0.989-0.656c0.392-0.187,0.824-0.352,1.306-0.495
				c0.694-0.204,1.226-0.42,1.584-0.646c0.36-0.229,0.541-0.54,0.541-0.938c0-0.301-0.111-0.52-0.334-0.657
				c-0.224-0.137-0.507-0.207-0.854-0.207c-0.408,0-0.789,0.085-1.146,0.252c-0.354,0.171-0.656,0.423-0.908,0.759l-1.099-0.702
				c0.349-0.527,0.779-0.938,1.296-1.227c0.519-0.287,1.135-0.438,1.854-0.447c0.359,0,0.699,0.039,1.023,0.115
				c0.32,0.078,0.604,0.198,0.84,0.36c0.236,0.163,0.426,0.373,0.568,0.632c0.141,0.259,0.213,0.567,0.213,0.931
				c0,0.407-0.074,0.768-0.227,1.072c-0.146,0.308-0.355,0.58-0.627,0.82c-0.271,0.239-0.59,0.45-0.959,0.632
				c-0.371,0.182-0.783,0.343-1.238,0.485c-0.299,0.098-0.584,0.191-0.854,0.289s-0.506,0.211-0.709,0.344
				c-0.2,0.133-0.361,0.292-0.48,0.479c-0.121,0.188-0.181,0.419-0.181,0.693c0,0.638,0.479,0.956,1.438,0.956
				c0.348,0,0.713-0.084,1.098-0.252c0.387-0.168,0.701-0.408,0.953-0.721l1.062,0.735c-0.373,0.523-0.816,0.915-1.332,1.178
				C155.298,20.863,154.641,20.993,153.835,20.993z"/>
			<path fill="#5F6062" d="M163.104,11.867c0.471,0,0.873,0.071,1.217,0.216c0.342,0.146,0.625,0.34,0.848,0.585
				c0.223,0.246,0.387,0.534,0.494,0.864c0.105,0.329,0.162,0.681,0.162,1.053c0,0.359-0.033,0.75-0.102,1.17
				c-0.064,0.421-0.136,0.812-0.207,1.17c-0.131,0.648-0.293,1.224-0.484,1.722s-0.434,0.921-0.721,1.27
				c-0.289,0.351-0.642,0.611-1.053,0.792c-0.414,0.182-0.91,0.271-1.486,0.271c-0.49,0-0.904-0.072-1.24-0.219
				c-0.336-0.144-0.609-0.339-0.818-0.585c-0.209-0.243-0.361-0.522-0.459-0.837c-0.096-0.312-0.146-0.636-0.146-0.972
				c0-0.469,0.031-0.918,0.092-1.351c0.062-0.435,0.133-0.842,0.217-1.227c0.119-0.562,0.273-1.086,0.469-1.563
				c0.191-0.479,0.414-0.876,0.666-1.188C161.195,12.257,162.048,11.867,163.104,11.867z M162.997,13.163
				c-0.504,0-0.918,0.18-1.242,0.539c-0.19,0.202-0.364,0.479-0.521,0.824c-0.156,0.349-0.295,0.742-0.414,1.186
				c-0.096,0.35-0.172,0.724-0.226,1.122c-0.055,0.4-0.094,0.757-0.116,1.067c-0.015,0.216-0.004,0.429,0.024,0.638
				c0.028,0.21,0.099,0.396,0.199,0.559c0.101,0.159,0.247,0.293,0.438,0.396c0.189,0.103,0.441,0.151,0.756,0.151
				c0.504,0,0.883-0.129,1.135-0.389c0.252-0.257,0.462-0.595,0.632-1.014c0.106-0.265,0.207-0.555,0.297-0.87
				s0.168-0.639,0.231-0.961c0.064-0.323,0.117-0.635,0.153-0.935c0.034-0.301,0.054-0.567,0.054-0.81
				c0-0.502-0.129-0.879-0.388-1.131C163.755,13.289,163.417,13.163,162.997,13.163z"/>
			<path fill="#5F6062" d="M166.542,21.137c-0.062-0.191-0.125-0.382-0.197-0.566c-0.071-0.188-0.139-0.381-0.196-0.585
				c0.264-0.119,0.494-0.245,0.69-0.378c0.199-0.132,0.375-0.284,0.531-0.459c0.155-0.174,0.295-0.39,0.413-0.642
				c0.119-0.252,0.234-0.567,0.343-0.951c0.106-0.396,0.211-0.825,0.308-1.287c0.096-0.462,0.188-0.938,0.278-1.423
				c0.09-0.485,0.181-0.974,0.271-1.457c0.09-0.486,0.184-0.966,0.278-1.434h5.328l-1.69,8.91h-1.441
				c0.24-1.271,0.48-2.544,0.725-3.816c0.236-1.271,0.479-2.544,0.719-3.813h-2.555c-0.255,1.438-0.484,2.628-0.693,3.562
				c-0.211,0.938-0.446,1.695-0.711,2.277s-0.586,1.025-0.963,1.332C167.598,20.714,167.118,20.957,166.542,21.137z"/>
			<path fill="#5F6062" d="M179.736,11.867c0.468,0,0.873,0.071,1.216,0.216c0.342,0.146,0.622,0.34,0.846,0.585
				c0.224,0.246,0.39,0.534,0.494,0.864c0.108,0.329,0.162,0.681,0.162,1.053c0,0.359-0.033,0.75-0.099,1.17
				c-0.065,0.421-0.138,0.812-0.207,1.17c-0.133,0.648-0.295,1.224-0.485,1.722s-0.433,0.921-0.722,1.27
				c-0.287,0.351-0.64,0.611-1.053,0.792c-0.414,0.182-0.908,0.271-1.484,0.271c-0.491,0-0.905-0.072-1.241-0.219
				c-0.336-0.144-0.608-0.339-0.818-0.585c-0.209-0.243-0.362-0.522-0.459-0.837c-0.098-0.312-0.146-0.636-0.146-0.972
				c0-0.469,0.029-0.918,0.091-1.351c0.062-0.435,0.131-0.842,0.215-1.227c0.121-0.562,0.276-1.086,0.472-1.563
				c0.188-0.479,0.414-0.876,0.666-1.188C177.829,12.257,178.682,11.867,179.736,11.867z M179.628,13.163
				c-0.504,0-0.918,0.18-1.242,0.539c-0.19,0.202-0.364,0.479-0.521,0.824c-0.156,0.349-0.293,0.742-0.414,1.186
				c-0.096,0.35-0.17,0.724-0.225,1.122c-0.056,0.4-0.095,0.757-0.117,1.067c-0.012,0.216-0.002,0.429,0.026,0.638
				c0.029,0.21,0.097,0.396,0.197,0.559c0.101,0.159,0.248,0.293,0.44,0.396c0.188,0.103,0.439,0.151,0.756,0.151
				c0.505,0,0.882-0.129,1.134-0.389c0.252-0.257,0.463-0.595,0.631-1.014c0.106-0.265,0.207-0.555,0.297-0.87
				c0.093-0.315,0.168-0.639,0.233-0.961c0.066-0.323,0.117-0.635,0.152-0.935c0.037-0.301,0.055-0.567,0.055-0.81
				c0-0.502-0.129-0.879-0.387-1.131C180.389,13.289,180.048,13.163,179.628,13.163z"/>
			<path fill="#5F6062" d="M187.891,11.867c0.491,0,0.905,0.062,1.241,0.188s0.604,0.285,0.812,0.483
				c0.203,0.197,0.352,0.417,0.44,0.657c0.091,0.239,0.136,0.468,0.136,0.684c0,0.457-0.121,0.873-0.359,1.251
				c-0.24,0.378-0.559,0.636-0.955,0.768c0.436,0.168,0.734,0.4,0.91,0.702c0.174,0.3,0.26,0.643,0.26,1.023
				c0,0.301-0.061,0.646-0.188,1.035c-0.125,0.391-0.336,0.756-0.629,1.098c-0.295,0.345-0.687,0.633-1.17,0.864
				c-0.486,0.233-1.093,0.354-1.812,0.354c-0.359,0-0.709-0.039-1.046-0.117c-0.336-0.078-0.637-0.21-0.897-0.396
				c-0.266-0.187-0.475-0.426-0.631-0.72c-0.155-0.294-0.231-0.657-0.231-1.09c0-0.3,0.018-0.572,0.053-0.818
				c0.037-0.246,0.084-0.495,0.146-0.747l0.505-2.269c0.084-0.372,0.205-0.734,0.357-1.089c0.156-0.354,0.369-0.669,0.643-0.944
				c0.271-0.275,0.604-0.498,0.998-0.666C186.865,11.95,187.337,11.867,187.891,11.867z M186.611,19.644
				c0.408,0,0.757-0.067,1.045-0.206c0.287-0.139,0.523-0.309,0.712-0.512c0.187-0.201,0.323-0.421,0.413-0.651
				c0.091-0.231,0.136-0.449,0.136-0.652c0-0.347-0.123-0.609-0.369-0.796s-0.662-0.278-1.252-0.278h-0.504l0.252-1.239h0.396
				c0.492,0,0.861-0.104,1.104-0.311c0.246-0.206,0.384-0.474,0.405-0.8c0-0.108-0.016-0.225-0.045-0.346
				c-0.03-0.121-0.084-0.229-0.161-0.326c-0.078-0.097-0.195-0.176-0.353-0.235c-0.156-0.062-0.359-0.091-0.611-0.091
				c-0.36,0-0.659,0.068-0.899,0.207c-0.239,0.138-0.437,0.313-0.586,0.53c-0.147,0.216-0.265,0.449-0.342,0.702
				c-0.078,0.252-0.142,0.483-0.188,0.699l-0.449,2.286c-0.024,0.107-0.053,0.24-0.082,0.396c-0.028,0.156-0.045,0.294-0.045,0.414
				c0,0.3,0.104,0.576,0.314,0.828S186.083,19.644,186.611,19.644z"/>
			<path fill="#5F6062" d="M197.771,20.867h-1.459l0.758-3.925h-3.188l-0.757,3.925h-1.459l1.729-8.91h1.459l-0.737,3.798h3.188
				l0.735-3.798h1.459L197.771,20.867z"/>
			<path fill="#5F6062" d="M207.6,11.957l-1.729,8.91h-1.422l0.16-0.828c-0.012,0-0.021-0.003-0.025-0.01
				c-0.006-0.006-0.016-0.009-0.025-0.009c-0.3,0.336-0.6,0.579-0.893,0.729c-0.295,0.149-0.688,0.228-1.18,0.228
				c-0.732,0-1.275-0.24-1.629-0.723c-0.355-0.479-0.531-1.128-0.531-1.941c0-0.324,0.023-0.669,0.072-1.035
				c0.047-0.365,0.102-0.705,0.162-1.02c0.119-0.6,0.27-1.167,0.448-1.698c0.181-0.534,0.406-0.999,0.687-1.396
				c0.275-0.396,0.611-0.711,1.008-0.945c0.396-0.231,0.863-0.351,1.402-0.351c0.396,0,0.764,0.081,1.1,0.242
				c0.336,0.162,0.595,0.397,0.773,0.711c0.012,0,0.018-0.003,0.018-0.009s0.006-0.012,0.021-0.012l0.18-0.846L207.6,11.957
				L207.6,11.957z M203.1,19.552c0.42,0,0.771-0.141,1.055-0.423c0.279-0.279,0.486-0.591,0.619-0.927
				c0.106-0.275,0.209-0.573,0.307-0.892c0.098-0.317,0.178-0.63,0.244-0.938c0.064-0.307,0.117-0.604,0.16-0.892
				c0.041-0.288,0.062-0.546,0.062-0.773c0-0.441-0.104-0.792-0.312-1.044c-0.211-0.252-0.53-0.378-0.963-0.378
				c-0.289,0-0.559,0.062-0.802,0.188c-0.245,0.126-0.468,0.339-0.657,0.64c-0.146,0.216-0.278,0.521-0.403,0.918
				c-0.128,0.396-0.236,0.81-0.335,1.241c-0.069,0.349-0.131,0.669-0.18,0.963c-0.047,0.295-0.072,0.55-0.072,0.766
				c0,0.204,0.021,0.398,0.056,0.585c0.035,0.188,0.104,0.354,0.196,0.495c0.099,0.146,0.228,0.259,0.39,0.342
				C202.622,19.512,202.835,19.552,203.1,19.552z"/>
			<path fill="#5F6062" d="M212.516,20.867l1.727-8.91h1.441l-0.738,3.87h0.918c0.156,0,0.32-0.013,0.494-0.036
				c0.174-0.021,0.342-0.081,0.504-0.171c0.162-0.091,0.322-0.223,0.477-0.396c0.156-0.176,0.311-0.405,0.451-0.693l1.227-2.573
				h1.478l-1.242,2.592c-0.217,0.435-0.453,0.798-0.711,1.092c-0.259,0.294-0.556,0.486-0.892,0.585
				c0.383,0.096,0.64,0.3,0.765,0.609c0.127,0.312,0.213,0.689,0.262,1.135l0.252,2.897h-1.387l-0.16-2.467
				c-0.062-0.575-0.221-0.95-0.479-1.125c-0.258-0.174-0.584-0.261-0.979-0.261h-1.205l-0.756,3.853L212.516,20.867L212.516,20.867z
				"/>
			<path fill="#5F6062" d="M227.812,11.957l-1.729,8.91h-1.422l0.162-0.828c-0.012,0-0.021-0.003-0.027-0.01
				c-0.006-0.006-0.016-0.009-0.023-0.009c-0.301,0.336-0.599,0.579-0.895,0.729c-0.295,0.149-0.688,0.228-1.18,0.228
				c-0.729,0-1.272-0.24-1.629-0.723c-0.354-0.479-0.531-1.128-0.531-1.941c0-0.324,0.025-0.669,0.072-1.035
				c0.049-0.365,0.102-0.705,0.162-1.02c0.121-0.6,0.271-1.167,0.451-1.698c0.18-0.534,0.405-0.999,0.684-1.396
				c0.275-0.396,0.611-0.711,1.008-0.945c0.396-0.231,0.863-0.351,1.404-0.351c0.396,0,0.762,0.081,1.098,0.242
				c0.336,0.162,0.598,0.397,0.773,0.711c0.012,0,0.02-0.003,0.02-0.009s0.007-0.012,0.02-0.012l0.181-0.846L227.812,11.957
				L227.812,11.957z M223.312,19.552c0.42,0,0.771-0.141,1.055-0.423c0.281-0.279,0.488-0.591,0.621-0.927
				c0.105-0.275,0.211-0.573,0.307-0.892c0.098-0.317,0.178-0.63,0.242-0.938c0.064-0.307,0.121-0.604,0.162-0.892
				c0.043-0.288,0.062-0.546,0.062-0.773c0-0.441-0.104-0.792-0.313-1.044s-0.53-0.378-0.963-0.378
				c-0.287,0-0.555,0.062-0.801,0.188s-0.466,0.339-0.656,0.64c-0.146,0.216-0.278,0.521-0.405,0.918
				c-0.125,0.396-0.233,0.81-0.332,1.241c-0.07,0.349-0.134,0.669-0.181,0.963c-0.049,0.295-0.071,0.55-0.071,0.766
				c0,0.204,0.021,0.398,0.053,0.585c0.037,0.188,0.104,0.354,0.199,0.495c0.099,0.146,0.228,0.259,0.39,0.342
				C222.837,19.512,223.05,19.552,223.312,19.552z"/>
			<path fill="#5F6062" d="M231.593,20.976c-0.553,0-1.002-0.081-1.35-0.243c-0.349-0.162-0.621-0.375-0.82-0.642
				c-0.196-0.264-0.332-0.561-0.403-0.891c-0.07-0.33-0.107-0.663-0.107-0.999c0-0.349,0.023-0.695,0.072-1.044
				s0.102-0.696,0.162-1.044c0.106-0.563,0.262-1.104,0.459-1.62c0.196-0.517,0.459-0.97,0.783-1.359
				c0.321-0.39,0.713-0.699,1.17-0.936c0.455-0.234,0.987-0.352,1.602-0.352c0.637,0,1.185,0.159,1.64,0.483
				c0.454,0.324,0.731,0.792,0.827,1.403l-1.332,0.646c-0.061-0.396-0.202-0.688-0.432-0.882c-0.229-0.189-0.519-0.288-0.865-0.288
				c-0.371,0-0.689,0.085-0.963,0.252c-0.27,0.169-0.5,0.396-0.69,0.678c-0.19,0.28-0.353,0.604-0.479,0.973
				c-0.125,0.366-0.225,0.74-0.297,1.125c-0.061,0.275-0.106,0.555-0.145,0.837c-0.035,0.281-0.055,0.549-0.055,0.801
				c0,0.603,0.107,1.038,0.322,1.313c0.219,0.274,0.596,0.414,1.137,0.414c0.348,0,0.674-0.104,0.979-0.309
				c0.309-0.203,0.537-0.479,0.69-0.827l1.228,0.686c-0.301,0.517-0.715,0.948-1.242,1.297
				C232.954,20.802,232.324,20.976,231.593,20.976z"/>
			<path fill="#5F6062" d="M243.618,11.957l-1.729,8.91h-1.422l0.159-0.828c-0.013,0-0.021-0.003-0.024-0.01
				c-0.006-0.006-0.017-0.009-0.025-0.009c-0.303,0.336-0.6,0.579-0.893,0.729c-0.295,0.149-0.688,0.228-1.181,0.228
				c-0.731,0-1.274-0.24-1.629-0.723c-0.354-0.479-0.53-1.128-0.53-1.941c0-0.324,0.021-0.669,0.071-1.035
				c0.047-0.365,0.103-0.705,0.162-1.02c0.118-0.6,0.271-1.167,0.448-1.698c0.181-0.534,0.408-0.999,0.685-1.396
				c0.276-0.396,0.612-0.711,1.011-0.945c0.396-0.231,0.862-0.351,1.401-0.351c0.396,0,0.765,0.081,1.101,0.242
				c0.336,0.162,0.594,0.397,0.772,0.711c0.013,0,0.019-0.003,0.019-0.009s0.006-0.012,0.021-0.012l0.18-0.846L243.618,11.957
				L243.618,11.957z M239.118,19.552c0.42,0,0.771-0.141,1.053-0.423c0.281-0.279,0.488-0.591,0.621-0.927
				c0.106-0.275,0.209-0.573,0.308-0.892c0.096-0.317,0.178-0.63,0.241-0.938c0.063-0.307,0.119-0.604,0.162-0.892
				c0.041-0.288,0.062-0.546,0.062-0.773c0-0.441-0.104-0.792-0.312-1.044c-0.211-0.252-0.531-0.378-0.963-0.378
				c-0.289,0-0.559,0.062-0.801,0.188c-0.246,0.126-0.469,0.339-0.658,0.64c-0.146,0.216-0.277,0.521-0.404,0.918
				c-0.127,0.396-0.236,0.81-0.332,1.241c-0.072,0.349-0.133,0.669-0.182,0.963c-0.047,0.295-0.072,0.55-0.072,0.766
				c0,0.204,0.02,0.398,0.057,0.585c0.035,0.188,0.103,0.354,0.197,0.495c0.096,0.146,0.225,0.259,0.387,0.342
				C238.641,19.512,238.852,19.552,239.118,19.552z"/>
			<path fill="#5F6062" d="M248.529,20.867l1.729-8.91h1.438l-0.736,3.87h0.918c0.154,0,0.32-0.013,0.494-0.036
				c0.174-0.021,0.344-0.081,0.504-0.171c0.162-0.091,0.32-0.223,0.479-0.396c0.156-0.176,0.308-0.405,0.449-0.693l1.225-2.573
				h1.479l-1.242,2.592c-0.217,0.435-0.453,0.798-0.711,1.092c-0.259,0.294-0.556,0.486-0.892,0.585
				c0.383,0.096,0.64,0.3,0.767,0.609c0.125,0.312,0.213,0.689,0.26,1.135l0.252,2.897h-1.385l-0.162-2.467
				c-0.062-0.575-0.221-0.95-0.479-1.125c-0.258-0.174-0.584-0.261-0.979-0.261h-1.205l-0.756,3.853L248.529,20.867L248.529,20.867z
				"/>
			<path fill="#5F6062" d="M255.893,24.413c0.396-2.088,0.797-4.164,1.205-6.229c0.407-2.063,0.815-4.143,1.227-6.229h1.422
				l-0.162,0.828c0.014,0,0.02,0.003,0.02,0.009c0,0.007,0.006,0.009,0.019,0.009c0.301-0.3,0.621-0.531,0.963-0.699
				c0.345-0.168,0.754-0.252,1.231-0.252c0.625,0,1.123,0.189,1.494,0.573c0.373,0.387,0.56,0.969,0.56,1.746
				c0,0.396-0.022,0.825-0.072,1.287c-0.047,0.462-0.106,0.886-0.18,1.271c-0.106,0.588-0.246,1.137-0.414,1.646
				c-0.168,0.511-0.392,0.957-0.666,1.341c-0.274,0.387-0.617,0.688-1.024,0.909c-0.408,0.224-0.906,0.333-1.494,0.333
				c-0.357,0-0.699-0.081-1.023-0.243s-0.588-0.396-0.793-0.711c-0.014,0-0.02,0.003-0.02,0.009c0,0.009-0.006,0.012-0.019,0.012
				c-0.133,0.729-0.271,1.464-0.414,2.193c-0.146,0.732-0.289,1.466-0.435,2.196L255.893,24.413L255.893,24.413z M261.059,13.271
				c-0.457,0-0.832,0.15-1.125,0.459c-0.295,0.307-0.502,0.64-0.621,0.999c-0.146,0.456-0.271,0.918-0.379,1.387
				c-0.105,0.468-0.187,0.918-0.232,1.35c-0.014,0.108-0.021,0.222-0.025,0.333c-0.008,0.114-0.01,0.228-0.01,0.333
				c0,0.422,0.104,0.762,0.312,1.02c0.211,0.259,0.521,0.388,0.93,0.388c0.285,0,0.559-0.058,0.811-0.171
				c0.252-0.114,0.475-0.31,0.666-0.586c0.168-0.239,0.316-0.581,0.449-1.025c0.133-0.441,0.246-0.91,0.344-1.401
				c0.059-0.275,0.102-0.537,0.125-0.783s0.043-0.471,0.055-0.675c0-0.218-0.016-0.424-0.045-0.621
				c-0.031-0.197-0.094-0.372-0.188-0.521c-0.095-0.147-0.229-0.268-0.396-0.352C261.561,13.319,261.335,13.271,261.059,13.271z"/>
			<path fill="#5F6062" d="M272.613,11.957l-1.728,8.91h-1.425l0.162-0.828c-0.012,0-0.021-0.003-0.023-0.01
				c-0.007-0.006-0.018-0.009-0.027-0.009c-0.301,0.336-0.598,0.579-0.891,0.729c-0.296,0.149-0.688,0.228-1.182,0.228
				c-0.73,0-1.273-0.24-1.629-0.723c-0.354-0.479-0.53-1.128-0.53-1.941c0-0.324,0.022-0.669,0.071-1.035
				c0.047-0.365,0.104-0.705,0.162-1.02c0.119-0.6,0.271-1.167,0.449-1.698c0.18-0.534,0.408-0.999,0.684-1.396
				c0.275-0.396,0.611-0.711,1.011-0.945c0.396-0.231,0.862-0.351,1.401-0.351c0.396,0,0.765,0.081,1.102,0.242
				c0.336,0.162,0.594,0.397,0.771,0.711c0.012,0,0.02-0.003,0.02-0.009s0.006-0.012,0.018-0.012l0.183-0.846L272.613,11.957
				L272.613,11.957z M268.113,19.552c0.421,0,0.771-0.141,1.054-0.423c0.282-0.279,0.489-0.591,0.621-0.927
				c0.108-0.275,0.211-0.573,0.31-0.892c0.096-0.317,0.176-0.63,0.241-0.938c0.063-0.307,0.119-0.604,0.16-0.892
				c0.043-0.288,0.063-0.546,0.063-0.773c0-0.441-0.104-0.792-0.315-1.044c-0.209-0.252-0.529-0.378-0.964-0.378
				c-0.286,0-0.555,0.062-0.801,0.188s-0.465,0.339-0.655,0.64c-0.146,0.216-0.277,0.521-0.404,0.918
				c-0.127,0.396-0.235,0.81-0.334,1.241c-0.069,0.349-0.133,0.669-0.181,0.963c-0.049,0.295-0.071,0.55-0.071,0.766
				c0,0.204,0.021,0.398,0.056,0.585c0.036,0.188,0.102,0.354,0.196,0.495c0.099,0.146,0.228,0.259,0.39,0.342
				C267.639,19.512,267.85,19.552,268.113,19.552z"/>
			<path fill="#5F6062" d="M273.497,20.867l1.729-8.91h1.438l-1.729,8.91H273.497z M273.982,10.193l0.306-1.512h1.389l-0.288,1.512
				H273.982z M276.952,10.193l0.309-1.512h1.386l-0.287,1.512H276.952z"/>
			<path fill="#5F6062" d="M283.468,20.867h-1.457l0.757-3.925h-3.188l-0.757,3.925h-1.457l1.73-8.91h1.456l-0.735,3.798h3.186
				l0.738-3.798h1.457L283.468,20.867z"/>
			<path fill="#5F6062" d="M290.415,20.867l0.198-0.954h-0.055c-0.336,0.385-0.699,0.656-1.091,0.818s-0.774,0.243-1.159,0.243
				c-0.744,0-1.3-0.219-1.664-0.647c-0.367-0.433-0.502-1.015-0.406-1.746c0-0.061,0.037-0.294,0.106-0.702
				c0.071-0.405,0.169-0.921,0.289-1.539c0.118-0.615,0.255-1.308,0.403-2.067c0.148-0.765,0.297-1.533,0.439-2.312h1.438
				c-0.132,0.672-0.265,1.354-0.396,2.043c-0.134,0.689-0.252,1.319-0.36,1.893c-0.107,0.567-0.197,1.044-0.271,1.422
				c-0.074,0.378-0.107,0.591-0.107,0.64c-0.036,0.216-0.049,0.42-0.036,0.611c0.014,0.189,0.06,0.363,0.137,0.514
				c0.076,0.149,0.203,0.271,0.377,0.359c0.175,0.088,0.419,0.136,0.729,0.136c0.252,0,0.492-0.061,0.721-0.181
				s0.438-0.279,0.621-0.479c0.186-0.199,0.343-0.427,0.47-0.685c0.125-0.258,0.22-0.524,0.276-0.802l1.08-5.474h1.422l-1.727,8.91
				H290.415z"/>
		</g>
	</g>
</g>
</svg>
