<?xml version="1.0" encoding="utf-8"?>
<!-- Generator: Adobe Illustrator 17.1.0, SVG Export Plug-In . SVG Version: 6.00 Build 0)  -->
<!DOCTYPE svg PUBLIC "-//W3C//DTD SVG 1.1//EN" "http://www.w3.org/Graphics/SVG/1.1/DTD/svg11.dtd">
<svg version="1.1" id="Layer_1" xmlns="http://www.w3.org/2000/svg" xmlns:xlink="http://www.w3.org/1999/xlink" x="0px" y="0px"
	 viewBox="0 0 145.4 40" enable-background="new 0 0 145.4 40" xml:space="preserve">
<g>
	<path fill="#CFD1D0" d="M124,14.6L124,14.6c-0.1,0.4-0.2,0.8-0.3,1l-2.4,6.6h5.3l-2.4-6.6C124.2,15.5,124.1,15.1,124,14.6z"/>
	<path fill="#CFD1D0" d="M20.1,21H18v5.5h2.4c1.1,0,1.9-0.3,2.5-0.8c0.6-0.5,0.9-1.2,0.9-2.1C23.8,21.9,22.6,21,20.1,21z"/>
	<path fill="#CFD1D0" d="M22.2,18.7c0.6-0.5,0.8-1.1,0.8-2c0-1.5-1-2.2-3-2.2H18v5h1.8C20.9,19.4,21.7,19.1,22.2,18.7z"/>
	<path fill="#CFD1D0" d="M127.4,0H18C8.1,0,0,8.1,0,18v4c0,9.9,8.1,18,18,18h109.4c9.9,0,18-8.1,18-18v-4C145.4,8.1,137.3,0,127.4,0
		z M24.3,27c-0.9,0.8-2.1,1.2-3.6,1.2h-4.5V12.8h4.4c1.3,0,2.4,0.3,3.2,1c0.8,0.7,1.2,1.5,1.2,2.5c0,0.9-0.2,1.6-0.7,2.3
		s-1.1,1.1-2,1.4v0c1,0.1,1.9,0.5,2.5,1.2c0.6,0.7,0.9,1.5,0.9,2.6C25.7,25.1,25.3,26.1,24.3,27z M39.3,15.1
		c-1.1-0.6-2.3-0.9-3.7-0.9c-1.8,0-3.2,0.6-4.3,1.8c-1.1,1.2-1.6,2.8-1.6,4.7c0,1.9,0.5,3.4,1.5,4.5c1,1.1,2.4,1.7,4,1.7
		c1.5,0,2.9-0.3,4-1v1.8c-1.1,0.6-2.6,0.9-4.3,0.9c-2.2,0-3.9-0.7-5.3-2.1c-1.3-1.4-2-3.3-2-5.6c0-2.5,0.7-4.5,2.2-6
		c1.5-1.5,3.4-2.3,5.6-2.3c1.5,0,2.7,0.2,3.6,0.6V15.1z M51.4,28.2h-1.8v-6.6h-2.2c-0.4,0-0.8,0.1-1.1,0.3c-0.3,0.2-0.7,0.8-1,1.6
		l-1.9,4.6h-2.1l2.3-5.1c0.2-0.3,0.4-0.7,0.7-1.1s0.7-0.6,1.1-0.8v0c-1-0.2-1.8-0.7-2.4-1.4C42.3,19,42,18.1,42,17.1
		c0-1.3,0.5-2.4,1.4-3.2c0.9-0.8,2.1-1.2,3.6-1.2h4.5V28.2z M72,15.1c-1.1-0.6-2.3-0.9-3.7-0.9c-1.8,0-3.2,0.6-4.3,1.8
		c-1.1,1.2-1.6,2.8-1.6,4.7c0,1.9,0.5,3.4,1.5,4.5c1,1.1,2.4,1.7,4,1.7c1.5,0,2.9-0.3,4-1v1.8c-1.1,0.6-2.6,0.9-4.3,0.9
		c-2.2,0-3.9-0.7-5.3-2.1c-1.3-1.4-2-3.3-2-5.6c0-2.5,0.7-4.5,2.2-6c1.5-1.5,3.4-2.3,5.6-2.3c1.5,0,2.7,0.2,3.6,0.6V15.1z
		 M83.6,28.2L80,22.3c-0.1-0.2-0.2-0.4-0.4-0.8h0c-0.1,0.2-0.2,0.4-0.4,0.8l-3.7,5.9h-2.2l5.2-7.7l-4.7-7.7H76l3.1,5.4
		c0.2,0.4,0.4,0.7,0.5,1.1h0c0.2-0.5,0.4-0.8,0.6-1.1l3.3-5.4h2.1l-4.8,7.6l4.9,7.8H83.6z M96.3,28.2h-8.2V12.8h7.8v1.6h-6v5.1h5.6
		v1.6h-5.6v5.4h6.4V28.2z M114.9,28.2h-1.8V17.8c0-0.8,0-1.8,0.2-3h0c-0.2,0.7-0.3,1.2-0.5,1.5l-5.3,11.8h-0.9l-5.3-11.8
		c-0.2-0.3-0.3-0.9-0.5-1.6h0c0.1,0.6,0.1,1.6,0.1,3v10.3h-1.7V12.8h2.4l4.7,10.7c0.4,0.8,0.6,1.4,0.7,1.8h0.1
		c0.3-0.8,0.6-1.5,0.7-1.9l4.8-10.7h2.3V28.2z M128.9,28.2l-1.6-4.3h-6.5l-1.5,4.3h-2l5.9-15.4h1.9l5.9,15.4H128.9z"/>
	<path fill="#CFD1D0" d="M43.9,17.2c0,0.9,0.3,1.6,0.9,2.1c0.6,0.5,1.3,0.8,2.3,0.8h2.5v-5.6h-2.5c-1,0-1.8,0.2-2.4,0.7
		C44.2,15.6,43.9,16.3,43.9,17.2z"/>
</g>
</svg>
