<?xml version="1.0" encoding="utf-8"?>
<!-- Generator: Adobe Illustrator 17.1.0, SVG Export Plug-In . SVG Version: 6.00 Build 0)  -->
<!DOCTYPE svg PUBLIC "-//W3C//DTD SVG 1.1//EN" "http://www.w3.org/Graphics/SVG/1.1/DTD/svg11.dtd">
<svg version="1.1" id="Layer_1" xmlns="http://www.w3.org/2000/svg" xmlns:xlink="http://www.w3.org/1999/xlink" x="0px" y="0px"
	 viewBox="0 0 33 44" enable-background="new 0 0 33 44" xml:space="preserve">
<path fill="#F04924" d="M17.5,1.3h-2.1C6.9,1.3,0,8.2,0,16.8v8.8V44h33V33.9V16.8C33,8.2,26.1,1.3,17.5,1.3z"/>
<path fill="none" stroke="#FFFFFF" stroke-miterlimit="10" d="M25.6,25.8c-0.6,1.7-2.2,3.7-2.6,4.5c-0.4,1.5-0.1,2.9-0.2,2.9
	c0,0-0.8,0-1.7,0c-0.5-0.6-1.2-1.4-1.8-1.8c-0.8,0.3-0.9,1.1-2.1,1.9c-2.3,0-4.1,0-4.1-0.1c-0.2,0-0.3-0.6-0.3-1.4
	c-2.9-2.9-2.9-3-4.7-5.9c-1.3-1.2-3.3-3.8-1.6-5c1.7-1.4,4.2,1.2,4.9,2.2c0,0,0.1,0,0.1,0c-0.5-3.8-4.7-8.3-1.3-9.7
	c2.2,0,4,3.5,4.2,7.1c-0.2-4.6-0.6-8.3,2-8.3c2.6,0,2.2,2.3,2.1,8l0,0c0-5,0.9-6.8,2.3-6.6c2.4,0.2,1.9,3,1.9,6.7c0,0,0,0,0.1,0
	c0.4-1.6,1.9-4,2.8-3.8c0.7,0,1.3,0.5,1.3,1.1C27.2,19.3,26.6,20.8,25.6,25.8z"/>
</svg>
